<svg xmlns="http://www.w3.org/2000/svg" xmlns:xlink="http://www.w3.org/1999/xlink" viewBox="0,0,256,256" width="24px" height="24px" fill-rule="nonzero"><g fill="#1b1b1b" fill-rule="nonzero" stroke="none" stroke-width="1" stroke-linecap="butt" stroke-linejoin="miter" stroke-miterlimit="10" stroke-dasharray="" stroke-dashoffset="0" font-family="none" font-weight="none" font-size="none" text-anchor="none" style="mix-blend-mode: normal"><path d="M0,256v-256h256v256z" id="bgRectangle"></path></g><g fill="#ffffff" fill-rule="nonzero" stroke="none" stroke-width="1" stroke-linecap="butt" stroke-linejoin="miter" stroke-miterlimit="10" stroke-dasharray="" stroke-dashoffset="0" font-family="none" font-weight="none" font-size="none" text-anchor="none" style="mix-blend-mode: normal"><g transform="scale(10.66667,10.66667)"><path d="M5,3c-1.104,0 -2,0.895 -2,2v14c0,1.105 0.896,2 2,2h14c1.104,0 2,-0.895 2,-2v-14c0,-1.105 -0.896,-2 -2,-2zM5,5h14v14h-14zM7,8v8h1.67383v-2.88477h1.11523c1.21,0 2.51267,-0.64976 2.51367,-2.50976c0,-0.465 -0.27947,-2.60547 -2.60547,-2.60547zM8.67383,9.30273h1.11523c0.652,0 0.93264,0.65073 0.93164,1.30273c0,0.651 -0.18764,1.20898 -0.93164,1.20898h-1.11523zM16.39453,9.88281c-0.625,0 -0.95898,0.54873 -1.08398,0.80273l-0.04687,-0.68555h-1.56445v6h1.66406v-3.84961c0.078,-0.196 0.28292,-0.59766 0.91992,-0.59766c0.078,0 0.47873,0.03888 0.55273,0.04688l0.01562,-1.64062c-0.055,-0.023 -0.18303,-0.07617 -0.45703,-0.07617z"></path></g></g></svg>