<svg xmlns="http://www.w3.org/2000/svg" xmlns:xlink="http://www.w3.org/1999/xlink" viewBox="0,0,256,256" width="48px" height="48px" fill-rule="nonzero"><g fill="#1b1b1b" fill-rule="nonzero" stroke="none" stroke-width="1" stroke-linecap="butt" stroke-linejoin="miter" stroke-miterlimit="10" stroke-dasharray="" stroke-dashoffset="0" font-family="none" font-weight="none" font-size="none" text-anchor="none" style="mix-blend-mode: normal"><path d="M0,256v-256h256v256z" id="bgRectangle"></path></g><g fill="#ffffff" fill-rule="nonzero" stroke="none" stroke-width="1" stroke-linecap="butt" stroke-linejoin="miter" stroke-miterlimit="10" stroke-dasharray="" stroke-dashoffset="0" font-family="none" font-weight="none" font-size="none" text-anchor="none" style="mix-blend-mode: normal"><g transform="scale(5.33333,5.33333)"><path d="M13.5,6c-4.1245,0 -7.5,3.3755 -7.5,7.5v21c0,4.1245 3.3755,7.5 7.5,7.5h21c4.1245,0 7.5,-3.3755 7.5,-7.5v-21c0,-4.1245 -3.3755,-7.5 -7.5,-7.5zM13.5,9h21c2.5035,0 4.5,1.9965 4.5,4.5v21c0,2.5035 -1.9965,4.5 -4.5,4.5h-21c-2.5035,0 -4.5,-1.9965 -4.5,-4.5v-21c0,-2.5035 1.9965,-4.5 4.5,-4.5zM18.47656,14.97852c-0.82766,0.01293 -1.48843,0.69381 -1.47656,1.52148v15c-0.00765,0.54095 0.27656,1.04412 0.74381,1.31683c0.46725,0.27271 1.04514,0.27271 1.51238,0c0.46725,-0.27271 0.75146,-0.77588 0.74381,-1.31683v-15c0.00582,-0.40562 -0.15288,-0.7963 -0.43991,-1.08296c-0.28703,-0.28666 -0.67792,-0.44486 -1.08353,-0.43852zM30.47656,14.97852c-0.82766,0.01293 -1.48843,0.69381 -1.47656,1.52148v4.5h-1c-3.29586,0 -6,2.70414 -6,6c0,3.29586 2.70414,6 6,6h2.5c0.82839,-0.00008 1.49992,-0.67161 1.5,-1.5v-8.75391c0.02645,-0.16103 0.02645,-0.3253 0,-0.48633v-5.75977c0.00582,-0.40562 -0.15288,-0.7963 -0.43991,-1.08296c-0.28703,-0.28666 -0.67792,-0.44486 -1.08353,-0.43852zM28,24h1v6h-1c-1.67413,0 -3,-1.32587 -3,-3c0,-1.67413 1.32587,-3 3,-3z"></path></g></g></svg>